#!OML:ASF H:\Male1\Project 1\Capture day 1\Session 1\Male1.ASF
:FULLY-SPECIFIED
:DEGREES
377
root -21.226 14.7693 0.784708 1074.42 84.6805 -725.139
lowerback 6.20478 0.848596 3.56016
upperback 3.9011 1.39753 -1.13895
thorax 0.660188 0.815499 -3.24748
lowerneck -8.3597 3.47821 7.20927
upperneck 17.4729 4.55967 -3.77471
head 6.96506 2.43163 -2.01075
rclavicle -2.53947e-014 2.08724e-014
rhumerus -28.8591 5.24229 -93.5048
rradius 28.0418
rwrist -14.9862
rhand -18.7036 1.33713
rfingers 7.12502
rthumb 7.59124 -28.5066
lclavicle -2.53947e-014 2.08724e-014
lhumerus -27.7142 -1.0303 85.5888
lradius 27.5385
lwrist -7.41142
lhand -16.747 11.6713
lfingers 7.12502
lthumb 9.47944 41.4381
rfemur -6.41015 14.4425 29.2647
rtibia 32.0527
rfoot -36.7528 -25.2575
rtoes -29.2262
lfemur -26.2436 -8.38623 -20.7886
ltibia 51.8968
lfoot -25.7268 16.6721
ltoes -17.6176
378
root -21.1377 14.7786 0.790496 1076.94 84.3451 -722.711
lowerback 6.22464 0.916439 3.43747
upperback 3.83584 1.48088 -1.26911
thorax 0.588823 0.853288 -3.3187
lowerneck -8.12139 3.49098 7.20736
upperneck 17.3863 4.59075 -3.75217
head 6.89643 2.45115 -2.00411
rclavicle -3.57812e-015 -6.55989e-015
rhumerus -28.9738 5.18355 -93.6119
rradius 28.1047
rwrist -15.0772
rhand -18.5057 1.01511
rfingers 7.12502
rthumb 7.78224 -28.8217
lclavicle -3.57812e-015 -6.55989e-015
lhumerus -28.3969 -0.12107 84.7164
lradius 26.6356
lwrist -8.36286
lhand -16.774 11.7327
lfingers 7.12502
lthumb 9.45337 41.5006
rfemur -5.85335 14.6871 29.115
rtibia 31.5325
rfoot -36.3863 -25.2544
rtoes -29.1375
lfemur -26.9295 -8.99712 -20.8705
ltibia 51.2441
lfoot -25.3013 16.2811
ltoes -16.7718
379
root -21.0474 14.7709 0.793693 1078.55 83.9921 -721.196
lowerback 6.23305 0.937795 3.32626
upperback 3.94168 1.50691 -1.35909
thorax 0.695086 0.870896 -3.34919
lowerneck -8.6149 3.61573 7.11773
upperneck 17.4974 4.71235 -3.63029
head 7.02188 2.50538 -1.93077
rclavicle 1.03368e-014 0
rhumerus -28.7354 5.41936 -93.736
rradius 28.1605
rwrist -15.3684
rhand -18.1412 0.984945
rfingers 7.12502
rthumb 8.1341 -28.8385
lclavicle 1.03368e-014 0
lhumerus -28.809 0.79091 83.837
lradius 25.929
lwrist -9.2414
lhand -16.722 11.5107
lfingers 7.12502
lthumb 9.5036 41.2764
rfemur -5.32112 15.0301 29.0537
rtibia 31.1118
rfoot -36.2922 -25.2526
rtoes -28.9778
lfemur -27.6505 -9.46368 -20.8714
ltibia 50.6554
lfoot -24.7977 15.9912
ltoes -15.8659
380
root -20.954 14.7768 0.79653 1078.81 83.7094 -721.028
lowerback 6.2551 0.918562 3.30933
upperback 3.82407 1.4774 -1.31281
thorax 0.55696 0.848699 -3.29244
lowerneck -8.18614 3.65046 6.76509
upperneck 17.4383 4.82287 -3.47881
head 6.92018 2.55533 -1.82097
rclavicle -1.10325e-014 5.56597e-015
rhumerus -29.0108 5.95149 -93.8088
rradius 28.2786
rwrist -15.6276
rhand -17.8079 0.916032
rfingers 7.12502
rthumb 8.45572 -28.8947
lclavicle -1.10325e-014 5.56597e-015
lhumerus -29.8422 1.70719 83.1073
lradius 25.4941
lwrist -9.95978
lhand -16.5533 11.2942
lfingers 7.12502
lthumb 9.66638 41.0524
rfemur -4.77813 15.1859 29.1158
rtibia 30.6827
rfoot -36.1531 -25.4649
rtoes -29.467
lfemur -28.2846 -9.85691 -20.7235
ltibia 50.0455
lfoot -24.3775 15.9564
ltoes -15.9893
381
root -20.8551 14.7807 0.799424 1078.18 83.4813 -721.788
lowerback 6.19861 0.992265 3.53746
upperback 3.85501 1.58591 -1.44941
thorax 0.6408 0.911285 -3.56625
lowerneck -8.05972 3.66569 7.10694
upperneck 17.1323 4.81808 -3.66027
head 6.81271 2.55632 -1.93909
rclavicle 2.66371e-014 -2.78299e-015
rhumerus -28.975 5.94592 -94.016
rradius 28.423
rwrist -15.6793
rhand -17.6247 0.681432
rfingers 7.12502
rthumb 8.63252 -29.1221
lclavicle 2.66371e-014 -2.78299e-015
lhumerus -30.5348 1.83654 82.2747
lradius 25.2265
lwrist -10.2349
lhand -16.3921 11.2706
lfingers 7.12502
lthumb 9.82187 41.0216
rfemur -4.24375 15.0863 29.2444
rtibia 30.1923
rfoot -35.7801 -25.7315
rtoes -30.508
lfemur -28.9401 -10.2609 -20.4437
ltibia 49.491
lfoot -24.0521 16.02
ltoes -16.2116
382
root -20.7533 14.7828 0.802762 1076.66 83.2137 -723.399
lowerback 6.29726 1.01903 3.72491
upperback 3.77437 1.63249 -1.45752
thorax 0.513251 0.932748 -3.68666
lowerneck -7.83897 3.71166 7.18268
upperneck 17.0336 4.88358 -3.65422
head 6.74808 2.59525 -1.94768
rclavicle 1.84373e-014 -3.37934e-015
rhumerus -29.2316 6.29376 -94.2126
rradius 28.6386
rwrist -15.7551
rhand -17.4391 0.601796
rfingers 7.12502
rthumb 8.81164 -29.1942
lclavicle 1.84373e-014 -3.37934e-015
lhumerus -31.5531 2.257 81.4718
lradius 25.1119
lwrist -10.332
lhand -16.2437 11.1484
lfingers 7.12502
lthumb 9.96503 40.8926
rfemur -3.55422 15.1232 29.5076
rtibia 29.508
rfoot -35.3952 -26.025
rtoes -31.3947
lfemur -29.5461 -10.6209 -20.0235
ltibia 48.9814
lfoot -23.6876 15.9568
ltoes -15.3902
383
root -20.6503 14.7846 0.810055 1075.39 83.0165 -724.779
lowerback 6.36917 1.04516 3.76908
upperback 3.69756 1.67025 -1.39987
thorax 0.396977 0.946654 -3.65697
lowerneck -7.64777 3.71394 7.24136
upperneck 16.938 4.90539 -3.73916
head 6.68856 2.60447 -1.9863
rclavicle 3.77691e-015 1.70955e-014
rhumerus -29.4418 6.68929 -94.3196
rradius 28.838
rwrist -16.0126
rhand -17.0721 0.635873
rfingers 7.12502
rthumb 9.1658 -29.1449
lclavicle 3.77691e-015 1.70955e-014
lhumerus -32.5096 2.88654 80.7191
lradius 24.9889
lwrist -10.1901
lhand -16.1438 10.903
lfingers 7.12502
lthumb 10.0614 40.6424
rfemur -2.84591 15.3268 29.8074
rtibia 28.752
rfoot -35.0011 -26.5654
rtoes -32.2442
lfemur -30.148 -10.8285 -19.6217
ltibia 48.5695
lfoot -23.1832 15.7797
ltoes -14.3441
384
root -20.5413 14.785 0.817707 1073.13 82.943 -727.176
lowerback 6.36316 1.0011 3.8923
upperback 3.71191 1.61784 -1.29982
thorax 0.411141 0.921728 -3.61955
lowerneck -7.82058 3.83427 7.28702
upperneck 16.9733 5.06933 -3.85411
head 6.74383 2.67382 -2.01329
rclavicle -6.36111e-015 -1.59028e-015
rhumerus -29.4918 7.22026 -94.4716
rradius 29.0752
rwrist -16.3511
rhand -16.8377 0.544239
rfingers 7.12502
rthumb 9.39191 -29.2265
lclavicle -6.36111e-015 -1.59028e-015
lhumerus -33.2846 3.53349 80.0014
lradius 24.9913
lwrist -9.77816
lhand -16.2017 11.2206
lfingers 7.12502
lthumb 10.0056 40.9628
rfemur -2.13363 15.4573 30.2362
rtibia 28.0015
rfoot -34.6453 -26.9644
rtoes -32.334
lfemur -30.7289 -10.9454 -19.1435
ltibia 48.2217
lfoot -22.4686 15.5885
ltoes -13.2514
385
root -20.4318 14.7804 0.827317 1070.62 82.9293 -729.871
lowerback 6.34782 0.993828 4.08415
upperback 3.80326 1.61944 -1.26274
thorax 0.519418 0.930594 -3.68754
lowerneck -8.38381 3.89304 7.30231
upperneck 17.0783 5.08899 -3.79214
head 6.8771 2.6794 -1.98376
rclavicle 3.00662e-014 5.96354e-016
rhumerus -29.3283 7.58361 -94.6772
rradius 29.3069
rwrist -16.4941
rhand -16.9638 0.222139
rfingers 7.12502
rthumb 9.27028 -29.5541
lclavicle 3.00662e-014 5.96354e-016
lhumerus -33.7644 3.88825 79.3127
lradius 25.0436
lwrist -9.49821
lhand -16.1881 11.7944
lfingers 7.12502
lthumb 10.0187 41.5359
rfemur -1.46219 15.5108 30.6968
rtibia 27.3065
rfoot -34.2543 -27.1893
rtoes -31.7899
lfemur -31.3296 -10.8665 -18.6637
ltibia 47.9049
lfoot -21.6795 15.4155
ltoes -12.6238
386
root -20.3135 14.7729 0.834041 1071.28 82.8072 -729.235
lowerback 6.38526 1.04637 3.91977
upperback 3.86416 1.68402 -1.33002
thorax 0.564413 0.964189 -3.66801
lowerneck -8.40725 3.91772 7.21438
upperneck 16.8997 5.10077 -3.66534
head 6.81913 2.68575 -1.92748
rclavicle -1.27222e-014 3.18055e-015
rhumerus -29.3202 7.83174 -94.8305
rradius 29.5164
rwrist -16.704
rhand -17.0587 0.0198602
rfingers 7.12502
rthumb 9.17874 -29.7604
lclavicle -1.27222e-014 3.18055e-015
lhumerus -34.3598 4.48577 78.5314
lradius 24.9627
lwrist -9.51031
lhand -16.1927 11.7083
lfingers 7.12502
lthumb 10.0142 41.45
rfemur -0.632858 15.359 30.686
rtibia 26.6353
rfoot -33.8125 -27.1864
rtoes -31.8136
lfemur -31.6456 -10.6351 -18.7019
ltibia 47.6075
lfoot -21.3521 15.5911
ltoes -12.8293
387
root -20.192 14.7707 0.842153 1072.52 82.7741 -728.219
lowerback 6.18607 1.12647 3.624
upperback 3.64232 1.7619 -1.36132
thorax 0.443445 0.988351 -3.53582
lowerneck -7.3162 3.79955 7.01424
upperneck 16.3298 5.00407 -3.47167
head 6.43001 2.65292 -1.86271
rclavicle -1.17283e-014 1.19271e-014
rhumerus -29.8155 7.87211 -94.9099
rradius 29.7475
rwrist -16.9864
rhand -17.1243 0.00905756
rfingers 7.12502
rthumb 9.11542 -29.774
lclavicle -1.17283e-014 1.19271e-014
lhumerus -35.3831 5.11357 77.7614
lradius 24.8228
lwrist -9.68226
lhand -16.35 11.4199
lfingers 7.12502
lthumb 9.86251 41.169
rfemur -0.0507866 15.08 30.5297
rtibia 26.0018
rfoot -33.6962 -27.0538
rtoes -31.9329
lfemur -32.1069 -10.2338 -18.8245
ltibia 47.3697
lfoot -21.4025 15.9035
ltoes -13.264
388
root -20.0661 14.7625 0.846568 1071.45 82.704 -729.214
lowerback 6.32384 1.144 3.56903
upperback 3.76887 1.79106 -1.35666
thorax 0.498297 1.00756 -3.50333
lowerneck -7.66426 3.77811 6.85926
upperneck 16.419 4.92154 -3.19051
head 6.50418 2.62047 -1.74783
rclavicle 1.00883e-014 3.97569e-016
rhumerus -29.6389 7.98179 -94.9982
rradius 29.8835
rwrist -17.2179
rhand -17.1488 -0.0797364
rfingers 7.12502
rthumb 9.09173 -29.8638
lclavicle 1.00883e-014 3.97569e-016
lhumerus -35.7054 5.7872 77.0549
lradius 24.6272
lwrist -9.82837
lhand -16.488 11.7303
lfingers 7.12502
lthumb 9.72933 41.4855
rfemur 0.870247 14.8644 30.7562
rtibia 25.446
rfoot -33.8077 -26.9959
rtoes -32.0655
lfemur -32.107 -9.81877 -18.7732
ltibia 47.2091
lfoot -21.7209 16.4056
ltoes -13.0472
389
root -19.9334 14.7522 0.849088 1069.54 82.601 -731.221
lowerback 6.26137 1.20304 3.70544
upperback 3.85572 1.87639 -1.38154
thorax 0.636215 1.05848 -3.60698
lowerneck -8.08652 3.87898 7.05963
upperneck 16.5542 4.99713 -3.17864
head 6.63102 2.66471 -1.76182
rclavicle 7.30534e-015 5.56597e-015
rhumerus -29.4102 7.66339 -95.0456
rradius 29.963
rwrist -17.2756
rhand -16.9872 -0.0636318
rfingers 7.12502
rthumb 9.24767 -29.8408
lclavicle 7.30534e-015 5.56597e-015
lhumerus -35.9269 6.08646 76.4248
lradius 24.5007
lwrist -9.78751
lhand -16.5372 12.4166
lfingers 7.12502
lthumb 9.68186 42.1741
rfemur 1.60806 14.7241 31.0904
rtibia 24.9812
rfoot -33.9533 -26.7968
rtoes -31.9348
lfemur -32.1661 -9.49994 -18.5377
ltibia 47.0783
lfoot -22.3733 16.8824
ltoes -11.2373
390
root -19.797 14.7402 0.851646 1068.9 82.594 -732.058
lowerback 6.09457 1.25631 3.66276
upperback 3.80164 1.9374 -1.44081
thorax 0.678993 1.08785 -3.64322
lowerneck -8.20973 3.97332 7.15966
upperneck 16.6999 5.08721 -3.05633
head 6.70453 2.72466 -1.72772
rclavicle -1.31198e-014 -5.96354e-015
rhumerus -29.4193 7.24561 -95.0839
rradius 30.0377
rwrist -17.335
rhand -16.8645 0.0486371
rfingers 7.12502
rthumb 9.36607 -29.7233
lclavicle -1.31198e-014 -5.96354e-015
lhumerus -36.3131 6.36928 75.7937
lradius 24.4091
lwrist -9.89718
lhand -16.4881 12.6439
lfingers 7.12502
lthumb 9.72925 42.3992
rfemur 2.16569 14.494 31.2102
rtibia 24.6475
rfoot -33.9563 -26.4486
rtoes -31.1856
lfemur -32.2101 -9.33885 -18.4541
ltibia 46.8949
lfoot -23.147 17.23
ltoes -8.7178
